<svg xmlns="http://www.w3.org/2000/svg" xmlns:xlink="http://www.w3.org/1999/xlink" width="1191" height="842" viewBox="0 0 1191 842"><defs><path id="a" d="M0 0h1191v842H0z"/></defs><clipPath id="b"><use xlink:href="#a" overflow="visible"/></clipPath><path clip-path="url(#b)" fill="#565656" d="M828.104 221.459c6.258-3.489 15.212-4.345 23.849-8.516 5.939-2.882 7.266-3.132 15.315-8.497.517-.324.586-1.104-.895-1.278-3.748-.454-10.361-1.918-10.722-6.512-.71-4.562 1.009-10.24 5.003-14.659 2.812-3.122 7.696-7.77 7.951-12.127.493-8.678-4.066-10.065-7.874-9.772-.157 7.997-7.651 14.943-10.782 18.604-10.071 11.777-19.581 15.766-20.015 27.706-.161 4.225-2.211 11.063-3.295 14.422-.41 1.235.707 1.051 1.465.629m-255.205 90.476c1.505-.597 1.488-1.398 0-1.225-19.848 2.264-39.88 9.015-58.54 18.041-.765-1.301-1.344-2.33-1.344-5.808 0-5.733 1.506-14.368 7.385-14.194 14.125.422 22.603-8.268 22.603-8.268s-21.838-2.795-20.046-12.06c.535-2.795 2.222-4.118 4.909-3.641 8.193 1.463 11.116-5.211 11.116-5.211s-7.833-1.928-11.242-4.41c-.698-.508-1.646-1.376-.531-2.514 1.324-1.355 2.666-2.482 5.066-1.864 6.665 1.746 10.516 2.037 12.73 2.027 1.394-.012 2.278-1.052 1.161-1.616-2.439-1.202-5.835-4.863-10.362-6.848 7.154-4.419 11.517-10.358 11.517-10.358s-1.963.628-5.662-.931c-4.497-1.908-4.371-23.71-7.278-28.433-3.277-5.352-9.936-10.498-13.991-12.256-5.23-2.274-10.223-2.945-12.71-5.611-4.221-4.551 3.169-32.712-27.154-32.712-18.99 0-31.711 14.92-34.631 30.057-.985 5.136-.167 11.052-.167 11.052s15.793-3.467 21.567 12.666c-4.68-4.681-9.188-6.955-10.779-7.249-6.223-1.126-10.024 2.785-11.054 8.105-3.067 15.842 13.262 29.323 14.947 30.903-3.202 31.813 10.483 52 11.789 77.301.839 16.393-10.884 23.263-12.874 25.246C446 375.463 442.46 381.4 438.338 392.571c0-8.603 2.98-20.446 10.153-33.287.552-.975.52-2.306-1.394-1.267-5.848 3.164-14.99 8.376-22.478 14.672-5.786 4.875-10.481 10.39-15.002 15.711-7.703 2.263-19.222 7.161-34.764 18.062-12.721 8.929-20.613 25.671-20.613 25.671s-13.156-1.127-32.318.467c-41.294 3.446-94.485 22.43-94.485 22.43h212.389c3.924-55.21 76.612-124.73 133.073-143.095zm-73.395-84.993s3.466 2.914 10.868 2.849c7.394-.065 10.961 2.157 12.666 4.692-.444 14.476-7.871 24.986-13.667 25.061-1.279 0-1.974-.768-1.821-1.766.367-2.447.319-5.514-1.422-7.953-1.97-2.774-4.073-5.19-9.188-7.876-1.023-.531-3.162-1.833-3.179-4.465-.056-6.144 5.743-10.542 5.743-10.542zm58.879 15.417a4.068 4.068 0 0 0 2.371-.812c2.317-1.723 4.514-4.086 4.494-5.677-.028-3.705-4.589-8.041-13.241-8.495-3.166-.175-3.836.356-5.814 2.341-2.742 2.73-.167 9.188.433 10.627 6.855.131 10.307 2.016 11.757 2.016zm392.344-98.275c-3.238.714-6.823 3.282-10.006 7.745-.838 1.724-4.548 7.749-6.148 11.682-2.631 2.177-4.15 3.836-6.089 5.861-2.419 2.513-5.911 6.718-6.083 7.259-1.817 6.005-7.417 17.652-7.417 17.652.829-5.202 5.716-19.363 6.139-21.931.601-3.674-.598-8.138-.939-11.81-.241-2.795-.482-5.579-.519-8.365-.027-1.267 1.301-9.32-1.522-9.103-2.421.185-7.634 2.201-9.01 9.352-.838 4.259.199 11.8-.346 20.047-.119 1.916-1.758 4.723-2.812 9.869-1.202 5.894-2.651 13.989-4.888 20.773.314-2.288 2.47-15.723 2.822-21.304.354-5.558-4.534-23.078-4.88-25.863-.276-2.243-1.143-2.893-2.32-3.001-4.161-.37-8.339 5.914-6.987 14.421.423 2.548 3.616 9.903 3.319 14.118-.294 4.205-2.33 8.507-2.519 10.89-.465 5.917-.748 13.934-1.5 17.629.605-2.958-.467-17.694-.704-20.826-.186-2.222-4.724-12.58-6.903-18.387-.926-2.48-2.66-2.623-3.879-2.016-4.897 2.45-5.107 10.944-4.129 14.899.576 2.308 3.646 8.516 4.855 13.772-3.165 24.576-8.518 26.352-8.518 26.352s-1.837 1.462-8.192 2.503c-11.155 1.875-30.732 7.346-36.151 1.506-.364-.391-1.377-.964-2.163-.325-1.684 1.321-15.917 13.62-24.528 20.143-27.436 20.804-46.42 26.481-68.119 41.434-25.104 39.354-48.634 52.585-79.656 61.102-13.322 3.651-26.612 3.392-29.039-3.64-5.86-16.893 16.021-25.692 31.498-28.26.834-.13.852-1.29.038-1.734-7.478-4.052-16.089-5.926-26.644-5.926-77.9-1.941-150.472 90.974-143.895 141.447.098 1.007.238 1.995.385 2.98h79.89c11.237-10.436 23.053-23.87 35.032-40.561.011-.011-20.969 4.346-38.94 3.078.074-.033 23.991-4.311 58.235-27.934 56.097 14.822 107.326-58.598 122.193-33.936.464.747 1.512.064 1.803-.152 45.131-30.622 62.84-69.456 94.426-96.456 14.152-12.116 16.938-17.12 41.511-23.666 6.831-1.809 7.592-4.464 9.886-7.13 3.209-3.759 7.813-.423 11.125-6.25 1.321-2.32-.076-5.831 6.604-7.229 6.735-1.429 7.396-7.649 10.596-11.183 8.367-9.263 7.329-8.678 14.527-16.402 2.693-3.144 13.593-16.407 14.63-18.476 1.531-3.045 5.3-13.012 10.08-18.582 4.574-5.352.501-7.086-4.149-6.066zM442.59 593.463h49.882c4.388 0 7.324-3.229 7.324-7.868v-3.986c-2.395.541-5.993.791-12.795.791h-16.417l28.55-54.979h-56.125v10.889h25.116l-23.932 45.423c-2.134 3.986-2.389 7.184-1.603 9.73M392.862 558.356l12.926 24.855c3.609 7.162 5.202 10.251 13.344 10.251h18.399c-1.058-.824-2.01-2.546-3.874-5.864l-18.817-34.597 22.018-25.581h-19.595l-24.401 30.936M368.721 593.463h22.803v-78.959c0-8.191-5.999-13.511-14.261-13.511h-8.542v92.47M358.595 587.47l-22.793-67.764c-2.671-8.095-5.466-11.812-16.67-11.812h-10.808l-31.721 85.568h14.389l7.244-21.162h30.539l4.356 13.695c1.604 5.05 3.599 7.293 9.07 7.293h19.2c-.922-.93-1.599-2.492-2.806-5.818m-56.806-25.528l12.26-35.802 11.431 35.802h-23.691zM538.348 595.023c18.934 0 35.054-13.534 35.054-35.985 0-19.146-15.323-33.341-34.654-33.341-19.199 0-35.226 13.935-35.226 36.408 0 19.764 16.027 32.918 34.826 32.918m.254-12.201c-7.725 0-10.53-8.918-10.53-22.861 0-13.275 2.676-22.322 10.53-22.322 7.749 0 10.262 9.568 10.262 23.502 0 13.186-2.513 21.681-10.262 21.681M583.655 593.463h14.261v-54.558l36.244 43.516c5.077 6.132 8.408 11.042 13.879 11.042h10.384v-78.394c0-4.521-3.05-7.422-7.711-7.422h-6.277v51.597l-34.85-41.532c-5.195-6.219-7.86-10.064-15.445-10.064h-10.485v85.815M703.106 595.023c18.935 0 35.075-13.534 35.075-35.985 0-19.115-15.344-33.341-34.674-33.341-19.207 0-35.198 13.935-35.198 36.408.001 19.786 15.992 32.918 34.797 32.918m.273-12.201c-7.75 0-10.545-8.918-10.545-22.853 0-13.284 2.672-22.331 10.545-22.331 7.719 0 10.261 9.588 10.261 23.534 0 13.155-2.542 21.65-10.261 21.65M887.384 561.682c.408-2.644.538-5.308.538-7.691 0-15.681-11.599-28.163-31.46-28.163-19.731 0-34.144 13.805-34.144 34.804 0 20.328 12.672 34.393 33.333 34.393 20.672 0 28.124-10.749 28.553-21.119-4.419 3.208-11.211 5.051-18.819 5.051-11.546 0-19.017-6.567-20.095-17.273h42.094m-42.105-9.147c.737-9.708 4.484-15.821 10.902-15.821 8.805 0 10.534 15.821 10.534 15.821h-21.436zM788.057 526.489c-7.742 0-14.143 2.796-17.35 5.98v-17.932c0-8.226-5.865-13.545-14.121-13.545h-8.534v92.47h26.667c25.457 0 39.596-13.295 39.596-38.021-.001-16.6-11.316-28.952-26.258-28.952m-13.888 55.932h-3.462v-42.636c1.464-.153 2.677-.281 4.938-.281 8.678 0 15.215 7.994 15.215 18.603-.001 15.797-6.017 24.314-16.691 24.314zM897.418 593.463h22.666v-78.925c0-8.226-5.995-13.545-14.265-13.545h-8.401v92.47M276.354 630.302h31.016v3.165h-13.642v35.962h-3.732v-35.962h-13.642v-3.165M329.966 655.278c0 8.104-4.723 14.966-13.381 14.966s-13.365-6.861-13.365-14.966c0-8.116 4.707-14.975 13.365-14.975s13.381 6.859 13.381 14.975m-23.289 0c0 6.036 3.288 12.049 9.908 12.049 6.626 0 9.931-6.013 9.931-12.049 0-6.035-3.305-12.061-9.931-12.061-6.62.001-9.908 6.026-9.908 12.061zM335.434 641.137h3.19v4.78h.156c1.806-3.403 4.769-5.613 9.262-5.613 3.731 0 7.074 1.831 8.109 5.548 1.706-3.717 5.261-5.548 8.993-5.548 6.193 0 9.368 3.229 9.368 9.925v19.2h-3.45v-19.024c0-4.66-1.751-7.187-6.693-7.187-5.969 0-7.67 4.934-7.67 10.208v16.003h-3.458v-19.2c.066-3.836-1.527-7.011-5.91-7.011-5.986 0-8.387 4.499-8.446 10.426v15.785h-3.451v-28.292M405.636 655.278c0 8.104-4.715 14.966-13.365 14.966-8.657 0-13.37-6.861-13.37-14.966 0-8.116 4.713-14.975 13.37-14.975 8.65.001 13.365 6.859 13.365 14.975m-23.301 0c0 6.036 3.298 12.049 9.936 12.049 6.621 0 9.908-6.013 9.908-12.049 0-6.035-3.287-12.061-9.908-12.061-6.638.001-9.936 6.026-9.936 12.061zM411.12 641.137h3.175v6.633h.108c1.754-4.552 5.59-7.237 10.684-7.021v3.456c-6.243-.324-10.516 4.281-10.516 10.143v15.081h-3.451v-28.292M430.893 641.137h3.18v6.633h.108c1.75-4.552 5.593-7.237 10.697-7.021v3.456c-6.258-.324-10.528 4.281-10.528 10.143v15.081h-3.457v-28.292M472.831 655.278c0 8.104-4.724 14.966-13.374 14.966-8.659 0-13.374-6.861-13.374-14.966 0-8.116 4.715-14.975 13.374-14.975 8.65.001 13.374 6.859 13.374 14.975m-23.296 0c0 6.036 3.295 12.049 9.922 12.049 6.631 0 9.926-6.013 9.926-12.049 0-6.035-3.295-12.061-9.926-12.061-6.627.001-9.922 6.026-9.922 12.061zM475.465 641.137h3.661l7.239 24.219h.109l6.896-24.219h3.905l6.904 24.219h.098l7.242-24.219h3.669l-9.098 28.292h-3.78l-6.966-23.793h-.105l-6.907 23.793h-3.777l-9.09-28.292M523.785 630.302v5.853c-.049 3.163-1.526 6.522-4.87 7.456v-2.352c1.864-.672 2.687-3.372 2.575-5.17h-2.304v-5.787h4.599M541.274 649.429c-.168-4.293-3.455-6.211-7.396-6.211-3.078 0-6.69 1.205-6.69 4.888 0 3.065 3.504 4.151 5.862 4.768l4.605 1.018c3.937.629 8.051 2.916 8.051 7.868 0 6.131-6.084 8.485-11.339 8.485-6.571 0-11.075-3.068-11.623-9.979h3.459c.276 4.658 3.72 7.062 8.332 7.062 3.228 0 7.721-1.43 7.721-5.353 0-3.282-3.068-4.41-6.194-5.168l-4.437-.974c-4.503-1.214-7.889-2.754-7.889-7.575 0-5.744 5.641-7.954 10.631-7.954 5.646 0 10.135 2.981 10.359 9.125h-3.452M578.699 630.302h4.167l15.336 39.127h-3.993l-4.771-12.169H571.63l-4.72 12.169h-3.996l15.785-39.127m-5.926 23.763h15.403l-7.56-20.066-7.843 20.066zM602.472 641.137h3.445v4.878h.107c1.258-3.393 5.045-5.711 9.038-5.711 7.932 0 10.349 4.184 10.349 10.922v18.203h-3.452V651.78c0-4.889-1.593-8.562-7.172-8.562-5.478 0-8.763 4.15-8.87 9.699v16.512h-3.445v-28.292M648.085 649.429c-.158-4.293-3.451-6.211-7.397-6.211-3.069 0-6.679 1.205-6.679 4.888 0 3.065 3.501 4.151 5.863 4.768l4.604 1.018c3.938.629 8.057 2.916 8.057 7.868 0 6.131-6.079 8.485-11.345 8.485-6.578 0-11.074-3.068-11.623-9.979h3.452c.283 4.658 3.734 7.062 8.34 7.062 3.223 0 7.721-1.43 7.721-5.353 0-3.282-3.068-4.41-6.188-5.168l-4.448-.974c-4.491-1.214-7.888-2.754-7.888-7.575 0-5.744 5.644-7.954 10.634-7.954 5.646 0 10.136 2.981 10.353 9.125h-3.456M654.991 641.137h3.68l7.231 24.219H666l6.906-24.219h3.897l6.908 24.219h.108l7.234-24.219h3.668l-9.092 28.292h-3.782l-6.966-23.793h-.11l-6.895 23.793h-3.787l-9.098-28.292M699.713 656.211c.049 5.039 2.684 11.116 9.311 11.116 5.039 0 7.784-2.955 8.885-7.205h3.439c-1.469 6.384-5.197 10.122-12.324 10.122-8.983 0-12.765-6.905-12.765-14.966 0-7.465 3.781-14.975 12.765-14.975 9.102 0 12.721 7.954 12.438 15.907h-21.749m18.304-2.904c-.175-5.2-3.402-10.088-8.993-10.088-5.635 0-8.771 4.934-9.311 10.088h18.304zM726.45 641.137h3.176v6.633h.108c1.761-4.552 5.597-7.237 10.689-7.021v3.456c-6.246-.324-10.516 4.281-10.516 10.143v15.081h-3.458v-28.292M760.975 649.429c-.165-4.293-3.453-6.211-7.396-6.211-3.07 0-6.687 1.205-6.687 4.888 0 3.065 3.5 4.151 5.858 4.768l4.605 1.018c3.954.629 8.056 2.916 8.056 7.868 0 6.131-6.086 8.485-11.344 8.485-6.575 0-11.064-3.068-11.616-9.979h3.455c.272 4.658 3.728 7.062 8.329 7.062 3.231 0 7.717-1.43 7.717-5.353 0-3.282-3.063-4.41-6.19-5.168l-4.434-.974c-4.489-1.214-7.887-2.754-7.887-7.575 0-5.744 5.641-7.954 10.626-7.954 5.643 0 10.143 2.981 10.358 9.125h-3.45M777.167 630.302h31.017v3.165h-13.647v35.962h-3.725v-35.962h-13.645v-3.165M831.859 655.278c0 8.104-4.709 14.966-13.373 14.966-8.661 0-13.37-6.861-13.37-14.966 0-8.116 4.709-14.975 13.37-14.975 8.664.001 13.373 6.859 13.373 14.975m-23.292 0c0 6.036 3.288 12.049 9.919 12.049 6.628 0 9.915-6.013 9.915-12.049 0-6.035-3.287-12.061-9.915-12.061-6.631.001-9.919 6.026-9.919 12.061zM862.22 669.429h-3.188v-5.385h-.101c-1.48 3.664-5.978 6.2-10.093 6.2-8.599 0-12.706-6.959-12.706-14.966 0-7.996 4.107-14.975 12.706-14.975 4.224 0 8.336 2.158 9.817 6.22h.111v-16.222h3.452v39.128m-13.379-2.102c7.349 0 9.929-6.187 9.929-12.049 0-5.85-2.58-12.061-9.929-12.061-6.571 0-9.254 6.211-9.254 12.061 0 5.863 2.683 12.049 9.254 12.049zM867.697 649.797c.324-6.643 4.996-9.493 11.452-9.493 4.985 0 10.415 1.562 10.415 9.125v14.995c0 1.323.653 2.082 2.025 2.082.385 0 .821-.099 1.094-.218v2.904c-.765.173-1.311.236-2.239.236-3.515 0-4.063-1.981-4.063-4.95h-.111c-2.407 3.685-4.871 5.766-10.306 5.766-5.188 0-9.468-2.581-9.468-8.27 0-7.942 7.734-8.247 15.173-9.102 2.844-.335 4.435-.714 4.435-3.858 0-4.646-3.342-5.797-7.398-5.797-4.266 0-7.447 1.961-7.566 6.579h-3.443m18.407 4.162h-.1c-.443.834-1.977 1.114-2.903 1.276-5.872 1.042-13.157.977-13.157 6.524 0 3.455 3.067 5.568 6.296 5.568 5.262 0 9.933-3.324 9.864-8.872v-4.496zM894.711 641.137h3.667l9.317 24.1 8.725-24.1h3.447l-12.275 32.605c-1.979 4.757-3.135 6.134-7.453 6.134-1.372-.043-2.081-.043-2.634-.272v-2.892c.825.14 1.583.271 2.352.271 3.067 0 3.794-1.821 4.937-4.433l1.201-3.251-11.284-28.162"/><path clip-path="url(#b)" fill="#565656" d="M173.42 453.714h747.125v2.5H173.42z"/></svg>