<svg xmlns="http://www.w3.org/2000/svg" xmlns:xlink="http://www.w3.org/1999/xlink" width="188" height="26" viewBox="0 0 188 26"><defs><path id="a" d="M0 0h188v26H0z"/></defs><clipPath id="b"><use xlink:href="#a" overflow="visible"/></clipPath><path clip-path="url(#b)" fill-rule="evenodd" clip-rule="evenodd" fill="#646462" d="M111.487.898h11.262c5.87 0 7.379 3.754 7.379 6.275 0 3.515-1.619 4.509-2.631 5.006 2.945 1.141 4.031 3.588 4.031 6.018a7.22 7.22 0 0 1-2.08 5.042c-1.362 1.362-2.668 2.209-7.582 2.209h-10.379V.898m5.006 20.335h6.182c2.431 0 3.848-1.104 3.848-3.589 0-2.152-1.805-2.963-3.625-2.963h-6.404v6.552zm0-10.747h5.281c1.969 0 3.532-.791 3.532-2.742 0-2.006-1.397-2.613-3.662-2.613h-5.151v5.355zM156.611.217c-3.185 0-11.318 1.399-11.318 12.883 0 3.514.754 6.073 1.896 7.95h-8.467V.917h-5.3V25.43h15.697v-2.08c2.559 2.228 5.761 2.65 7.491 2.65 3.166 0 11.337-1.398 11.337-12.9.001-11.484-8.17-12.883-11.336-12.883m0 21.458c-2.705 0-6.294-1.711-6.294-8.575 0-6.847 3.589-8.558 6.294-8.558s6.294 1.711 6.294 8.558c0 6.864-3.589 8.575-6.294 8.575z"/><g><defs><path id="c" d="M.06.161h187.027V26H.06z"/></defs><clipPath id="d"><use xlink:href="#c" overflow="visible"/></clipPath><g clip-path="url(#d)"><defs><path id="e" d="M0 0h188v26H0z"/></defs><clipPath id="f"><use xlink:href="#e" overflow="visible"/></clipPath><path clip-path="url(#f)" fill-rule="evenodd" clip-rule="evenodd" fill="#646462" d="M179.063 25.43h-5.466v-9.184L165.316.898h5.87l5.245 10.729L181.455.898h5.631l-8.023 15.404v9.128M72.95.898h-5.926l-6.845 19.195c.165-.645.239-1.344.239-2.116 0-4.123-3.073-5.631-6.423-6.459l-5.724-1.473c-1.012-.239-2.429-.791-2.429-2.705 0-2.227 2.319-2.944 4.27-2.944 4.49 0 4.895 2.594 5.024 3.699l4.932-.331c-.111-2.687-2.429-7.675-9.57-7.601-7.968.073-9.441 4.822-9.441 7.545 0 5.41 4.215 6.294 7.638 7.214l2.355.626c2.613.607 4.454 1.123 4.454 3.036 0 2.596-2.705 3.185-5.135 3.185-3.882 0-4.839-2.613-4.876-3.976l-4.472.221v-.036c0-4.417-3.479-5.778-6.828-6.606l-5.779-1.473c-1.012-.239-2.41-.644-2.41-2.558 0-2.227 2.061-2.944 4.012-2.944 4.49 0 4.895 2.594 5.023 3.699l4.933-.387C39.861 5.023 37.69.09 30.402.164c-7.969.055-9.183 4.822-9.183 7.545 0 5.41 4.656 6.331 8.116 7.27l2.024.533c2.595.607 4.693 1.16 4.693 3.073 0 2.596-2.65 3.185-5.08 3.185-4.674 0-5.428-2.632-5.465-3.994l-4.748.295v.147L14.667.88H8.742L0 25.411h5.392l1.712-5.061h9.054l1.583 5.061h5.576l-1.325-3.755C23.427 23.865 26.298 26 31.341 26c1.877 0 7.803-.497 9.312-5.466C41.794 23.056 44.72 26 50.756 26c1.73 0 6.92-.423 8.907-4.417l-1.399 3.865h5.411l1.712-5.062h9.054l1.583 5.062h5.575L72.95.898M8.465 16.117l3.148-9.716h.073l3.037 9.716H8.465zm58.283.037l3.147-9.716h.074l3.036 9.716h-6.257z"/></g></g><g><defs><path id="g" d="M0 0h188v26H0z"/></defs><clipPath id="h"><use xlink:href="#g" overflow="visible"/></clipPath><path clip-path="url(#h)" fill-rule="evenodd" clip-rule="evenodd" fill="#646462" d="M92.936 25.43h-5.392L96.285.917h5.926l8.65 24.513h-5.576l-1.584-5.061h-9.053l-1.712 5.061m3.092-9.313h6.237L99.23 6.419h-.073l-3.129 9.698z"/></g></svg>