<svg xmlns="http://www.w3.org/2000/svg" xmlns:xlink="http://www.w3.org/1999/xlink" width="160" height="100" viewBox="0 0 87 87"><defs><path id="a" d="M.06.03h86.912V87H.06z"/></defs><clipPath id="b"><use xlink:href="#a" overflow="visible"/></clipPath><g clip-path="url(#b)"><defs><path id="c" d="M0 0h87v87H0z"/></defs><clipPath id="d"><use xlink:href="#c" overflow="visible"/></clipPath><path clip-path="url(#d)" fill-rule="evenodd" clip-rule="evenodd" fill="#7D7D7D" d="M0 .03h86.972V87H0z"/></g><g><defs><path id="e" d="M0 0h87v87H0z"/></defs><clipPath id="f"><use xlink:href="#e" overflow="visible"/></clipPath><path clip-path="url(#f)" fill-rule="evenodd" clip-rule="evenodd" fill="#FFF" d="M47.155 80.081h-7.676V73.93h5.607c1.415-.055 2.614-1.196 2.614-2.559 0-1.416-1.199-2.558-2.668-2.558h-5.553v-5.118h4.899c.926 0 1.742-.817 1.742-1.797 0-1.09-.707-1.853-1.742-1.853h-4.899v-5.606h8.057c2.94-.109 5.39 2.177 5.499 5.062a5.38 5.38 0 0 1-4.41 5.553 7.66 7.66 0 0 1 5.662 7.405c0 4.192-3.43 7.678-7.132 7.622M4.58 54.439h8.602l7.351 25.642H11.93L4.58 54.439M21.73 80.081l-3.594-12.902 3.594-12.74h7.186L21.73 80.081M30.222 54.439h7.895v25.643h-7.895zM55.648 54.439h7.731v25.642l-7.731-.053V54.439M72.198 70.282h-7.73v-6.37h7.73v-9.473h7.84v25.642h-7.84v-9.799"/></g></svg>